<svg width="200" height="200" viewBox="0 0 200 200" fill="none" xmlns="http://www.w3.org/2000/svg">
<rect width="200" height="200" rx="100" fill="white"/>
<path d="M56.0227 111V87.7273H60.9432V106.943H70.9205V111H56.0227ZM94.6591 99.3636C94.6591 101.902 94.178 104.061 93.2159 105.841C92.2614 107.621 90.9583 108.981 89.3068 109.92C87.6629 110.852 85.8144 111.318 83.7614 111.318C81.6932 111.318 79.8371 110.848 78.1932 109.909C76.5492 108.97 75.25 107.61 74.2955 105.83C73.3409 104.049 72.8636 101.894 72.8636 99.3636C72.8636 96.8258 73.3409 94.6667 74.2955 92.8864C75.25 91.1061 76.5492 89.75 78.1932 88.8182C79.8371 87.8788 81.6932 87.4091 83.7614 87.4091C85.8144 87.4091 87.6629 87.8788 89.3068 88.8182C90.9583 89.75 92.2614 91.1061 93.2159 92.8864C94.178 94.6667 94.6591 96.8258 94.6591 99.3636ZM89.6705 99.3636C89.6705 97.7197 89.4242 96.3333 88.9318 95.2045C88.447 94.0758 87.7614 93.2197 86.875 92.6364C85.9886 92.053 84.9508 91.7614 83.7614 91.7614C82.572 91.7614 81.5341 92.053 80.6477 92.6364C79.7614 93.2197 79.072 94.0758 78.5795 95.2045C78.0947 96.3333 77.8523 97.7197 77.8523 99.3636C77.8523 101.008 78.0947 102.394 78.5795 103.523C79.072 104.652 79.7614 105.508 80.6477 106.091C81.5341 106.674 82.572 106.966 83.7614 106.966C84.9508 106.966 85.9886 106.674 86.875 106.091C87.7614 105.508 88.447 104.652 88.9318 103.523C89.4242 102.394 89.6705 101.008 89.6705 99.3636ZM113.736 95.25C113.577 94.697 113.353 94.2083 113.065 93.7841C112.777 93.3523 112.425 92.9886 112.009 92.6932C111.599 92.3902 111.13 92.1591 110.599 92C110.077 91.8409 109.497 91.7614 108.861 91.7614C107.671 91.7614 106.626 92.0568 105.724 92.6477C104.83 93.2386 104.134 94.0985 103.634 95.2273C103.134 96.3485 102.884 97.7197 102.884 99.3409C102.884 100.962 103.13 102.341 103.622 103.477C104.115 104.614 104.812 105.481 105.713 106.08C106.615 106.67 107.679 106.966 108.906 106.966C110.02 106.966 110.971 106.769 111.759 106.375C112.554 105.973 113.16 105.409 113.577 104.682C114.001 103.955 114.213 103.095 114.213 102.102L115.213 102.25H109.213V98.5455H118.952V101.477C118.952 103.523 118.52 105.28 117.656 106.75C116.793 108.212 115.603 109.341 114.088 110.136C112.573 110.924 110.838 111.318 108.884 111.318C106.702 111.318 104.785 110.837 103.134 109.875C101.482 108.905 100.194 107.53 99.2699 105.75C98.3532 103.962 97.8949 101.841 97.8949 99.3864C97.8949 97.5 98.1676 95.8182 98.7131 94.3409C99.2661 92.8561 100.039 91.5985 101.031 90.5682C102.024 89.5379 103.179 88.7538 104.497 88.2159C105.815 87.678 107.243 87.4091 108.781 87.4091C110.099 87.4091 111.327 87.6023 112.463 87.9886C113.599 88.3674 114.607 88.9053 115.486 89.6023C116.372 90.2992 117.096 91.1288 117.656 92.0909C118.217 93.0455 118.577 94.0985 118.736 95.25H113.736ZM144.034 99.3636C144.034 101.902 143.553 104.061 142.591 105.841C141.636 107.621 140.333 108.981 138.682 109.92C137.038 110.852 135.189 111.318 133.136 111.318C131.068 111.318 129.212 110.848 127.568 109.909C125.924 108.97 124.625 107.61 123.67 105.83C122.716 104.049 122.239 101.894 122.239 99.3636C122.239 96.8258 122.716 94.6667 123.67 92.8864C124.625 91.1061 125.924 89.75 127.568 88.8182C129.212 87.8788 131.068 87.4091 133.136 87.4091C135.189 87.4091 137.038 87.8788 138.682 88.8182C140.333 89.75 141.636 91.1061 142.591 92.8864C143.553 94.6667 144.034 96.8258 144.034 99.3636ZM139.045 99.3636C139.045 97.7197 138.799 96.3333 138.307 95.2045C137.822 94.0758 137.136 93.2197 136.25 92.6364C135.364 92.053 134.326 91.7614 133.136 91.7614C131.947 91.7614 130.909 92.053 130.023 92.6364C129.136 93.2197 128.447 94.0758 127.955 95.2045C127.47 96.3333 127.227 97.7197 127.227 99.3636C127.227 101.008 127.47 102.394 127.955 103.523C128.447 104.652 129.136 105.508 130.023 106.091C130.909 106.674 131.947 106.966 133.136 106.966C134.326 106.966 135.364 106.674 136.25 106.091C137.136 105.508 137.822 104.652 138.307 103.523C138.799 102.394 139.045 101.008 139.045 99.3636Z" fill="black"/>
</svg>
